<svg xmlns="http://www.w3.org/2000/svg" xmlns:xlink="http://www.w3.org/1999/xlink" width="10" height="10" viewBox="0 0 10 10"><defs><style>.a{fill:#fff;}.b{clip-path:url(#a);}.c{fill:#67bc45;}.d{fill:rgba(0,0,0,0);stroke:rgba(0,0,0,0);stroke-width:0.169px;}</style><clipPath id="a"><rect class="a" width="10" height="10"/></clipPath></defs><g transform="translate(-250 510)"><g class="b" transform="translate(250 -510)"><g transform="translate(0.053 0.592)"><g transform="translate(2.732 2.293)"><path class="c" d="M5.959,7.012a.971.971,0,1,1,.971-.971A.971.971,0,0,1,5.959,7.012Z" transform="translate(-4.988 -5.071)"/><path class="d" d="M5.959,7.012a.971.971,0,1,1,.971-.971A.971.971,0,0,1,5.959,7.012Z" transform="translate(-4.988 -5.071)"/></g><g transform="translate(5.301 2.293)"><path class="c" d="M10.069,7.012a.971.971,0,1,1,.971-.971A.971.971,0,0,1,10.069,7.012Z" transform="translate(-9.098 -5.071)"/><path class="d" d="M10.069,7.012a.971.971,0,1,1,.971-.971A.971.971,0,0,1,10.069,7.012Z" transform="translate(-9.098 -5.071)"/></g><g transform="translate(3.915)"><path class="c" d="M7.852,3.344a.971.971,0,1,1,.971-.971A.971.971,0,0,1,7.852,3.344Z" transform="translate(-6.882 -1.402)"/><path class="d" d="M7.852,3.344a.971.971,0,1,1,.971-.971A.971.971,0,0,1,7.852,3.344Z" transform="translate(-6.882 -1.402)"/></g><g transform="translate(0 3.869)"><path class="c" d="M2.292,7.592H.617a4.947,4.947,0,0,0,9.894,0H8.837a3.272,3.272,0,0,1-6.544,0Z" transform="translate(-0.617 -7.592)"/><path class="d" d="M2.292,7.592H.617a4.947,4.947,0,0,0,9.894,0H8.837a3.272,3.272,0,0,1-6.544,0Z" transform="translate(-0.617 -7.592)"/></g></g></g></g></svg>